G75*
%MOIN*%
%OFA0B0*%
%FSLAX24Y24*%
%IPPOS*%
%LPD*%
%AMOC8*
5,1,8,0,0,1.08239X$1,22.5*
%
%ADD10R,0.0500X0.0220*%
%ADD11R,0.0220X0.0500*%
%ADD12R,0.0630X0.0709*%
%ADD13R,0.0300X0.0600*%
%ADD14R,0.0472X0.0551*%
%ADD15R,0.0709X0.0630*%
D10*
X006990Y005078D03*
X006990Y005393D03*
X006990Y005708D03*
X006990Y006023D03*
X006990Y006337D03*
X006990Y006652D03*
X006990Y006967D03*
X006990Y007282D03*
X010370Y007282D03*
X010370Y006967D03*
X010370Y006652D03*
X010370Y006337D03*
X010370Y006023D03*
X010370Y005708D03*
X010370Y005393D03*
X010370Y005078D03*
D11*
X009782Y004490D03*
X009467Y004490D03*
X009152Y004490D03*
X008837Y004490D03*
X008523Y004490D03*
X008208Y004490D03*
X007893Y004490D03*
X007578Y004490D03*
X007578Y007870D03*
X007893Y007870D03*
X008208Y007870D03*
X008523Y007870D03*
X008837Y007870D03*
X009152Y007870D03*
X009467Y007870D03*
X009782Y007870D03*
D12*
X008231Y009180D03*
X007129Y009180D03*
X007129Y010680D03*
X008231Y010680D03*
X006431Y002830D03*
X005329Y002830D03*
D13*
X000930Y004080D03*
X002430Y004080D03*
X002430Y006280D03*
X000930Y006280D03*
D14*
X010639Y010680D03*
X011821Y010680D03*
D15*
X002680Y010629D03*
X002680Y011731D03*
M02*
