%
M48
M72
T01C0.0236
T02C0.0400
%
T01
X4680Y1130
X7580Y3080
X6380Y4080
X6030Y5830
X5230Y7980
X5830Y8830
X6380Y10530
X4380Y11730
X2680Y9680
X2680Y8430
X3180Y6780
X1080Y10530
X8230Y7130
X9380Y7080
X9530Y5880
X11080Y5730
X11380Y3830
X10180Y2180
X10980Y9430
X12930Y11880
T02
X1180Y1180
X1180Y2180
X2180Y2180
X2180Y1180
X3180Y1180
X3180Y2180
X4180Y3680
X4180Y4680
X4180Y5680
X4180Y6680
X4180Y7680
X4180Y8680
X4180Y9680
X1680Y8680
X1680Y7680
X5680Y12680
X6680Y12680
X7680Y12680
X8680Y12680
X9680Y12680
X10680Y12680
X13680Y10180
X13680Y9180
X13680Y8180
X13680Y7180
X13680Y6180
X13680Y5180
X13680Y4180
X13680Y3180
X12180Y1180
X11180Y1180
X10180Y1180
X9180Y1180
X8180Y1180
X7180Y1180
X6180Y1180
M30
