G75*
%MOIN*%
%OFA0B0*%
%FSLAX24Y24*%
%IPPOS*%
%LPD*%
%AMOC8*
5,1,8,0,0,1.08239X$1,22.5*
%
%ADD10C,0.0080*%
%ADD11C,0.0060*%
D10*
X000930Y000548D02*
X001430Y000548D01*
X001430Y000680D02*
X000930Y000680D01*
X000680Y000930D01*
X000680Y002430D01*
X000930Y002680D01*
X001430Y002680D01*
X001680Y002430D01*
X001680Y000930D01*
X001930Y000680D01*
X002430Y000680D01*
X002680Y000930D01*
X002680Y002430D01*
X002930Y002680D01*
X003430Y002680D01*
X003680Y002430D01*
X003680Y000930D01*
X003430Y000680D01*
X002930Y000680D01*
X002680Y000930D01*
X001680Y000930D02*
X001430Y000680D01*
X001680Y002430D02*
X001930Y002680D01*
X002430Y002680D01*
X002680Y002430D01*
X003680Y003430D02*
X003680Y003930D01*
X003930Y004180D01*
X003680Y004430D01*
X003680Y004930D01*
X003930Y005180D01*
X003680Y005430D01*
X003680Y005930D01*
X003930Y006180D01*
X003680Y006430D01*
X003680Y006930D01*
X003930Y007180D01*
X003680Y007430D01*
X003680Y007930D01*
X003930Y008180D01*
X003680Y008430D01*
X003680Y008930D01*
X003930Y009180D01*
X003680Y009430D01*
X003680Y009930D01*
X003930Y010180D01*
X004430Y010180D01*
X004680Y009930D01*
X004680Y009430D01*
X004430Y009180D01*
X004680Y008930D01*
X004680Y008430D01*
X004430Y008180D01*
X004680Y007930D01*
X004680Y007430D01*
X004430Y007180D01*
X004680Y006930D01*
X004680Y006430D01*
X004430Y006180D01*
X004680Y005930D01*
X004680Y005430D01*
X004430Y005180D01*
X004680Y004930D01*
X004680Y004430D01*
X004430Y004180D01*
X004680Y003930D01*
X004680Y003430D01*
X004430Y003180D01*
X003930Y003180D01*
X003680Y003430D01*
X004870Y003470D02*
X005080Y003470D01*
X005150Y003540D01*
X005150Y003820D01*
X005080Y003890D01*
X004870Y003890D01*
X004870Y003470D01*
X005330Y003540D02*
X005400Y003470D01*
X005541Y003470D01*
X005611Y003540D01*
X005611Y003610D01*
X005541Y003680D01*
X005330Y003680D01*
X005330Y003540D01*
X005330Y003680D02*
X005471Y003820D01*
X005611Y003890D01*
X005541Y004470D02*
X005400Y004470D01*
X005330Y004540D01*
X005330Y004680D02*
X005471Y004750D01*
X005541Y004750D01*
X005611Y004680D01*
X005611Y004540D01*
X005541Y004470D01*
X005330Y004680D02*
X005330Y004890D01*
X005611Y004890D01*
X005150Y004820D02*
X005150Y004540D01*
X005080Y004470D01*
X004870Y004470D01*
X004870Y004890D01*
X005080Y004890D01*
X005150Y004820D01*
X005080Y005470D02*
X004870Y005470D01*
X004870Y005890D01*
X005080Y005890D01*
X005150Y005820D01*
X005150Y005540D01*
X005080Y005470D01*
X005330Y005680D02*
X005611Y005680D01*
X005541Y005470D02*
X005541Y005890D01*
X005330Y005680D01*
X005400Y006470D02*
X005330Y006540D01*
X005400Y006470D02*
X005541Y006470D01*
X005611Y006540D01*
X005611Y006610D01*
X005541Y006680D01*
X005471Y006680D01*
X005541Y006680D02*
X005611Y006750D01*
X005611Y006820D01*
X005541Y006890D01*
X005400Y006890D01*
X005330Y006820D01*
X005150Y006820D02*
X005080Y006890D01*
X004870Y006890D01*
X004870Y006470D01*
X005080Y006470D01*
X005150Y006540D01*
X005150Y006820D01*
X003511Y007420D02*
X003230Y007420D01*
X003511Y007700D01*
X003511Y007770D01*
X003441Y007840D01*
X003300Y007840D01*
X003230Y007770D01*
X003050Y007770D02*
X002980Y007840D01*
X002770Y007840D01*
X002770Y007420D01*
X002980Y007420D01*
X003050Y007490D01*
X003050Y007770D01*
X003120Y008299D02*
X003120Y008509D01*
X003190Y008579D01*
X003470Y008579D01*
X003540Y008509D01*
X003540Y008299D01*
X003120Y008299D01*
X003260Y008760D02*
X003120Y008900D01*
X003540Y008900D01*
X003540Y008760D02*
X003540Y009040D01*
X002180Y008930D02*
X002180Y008430D01*
X001930Y008180D01*
X002180Y007930D01*
X002180Y007430D01*
X001930Y007180D01*
X001430Y007180D01*
X001180Y007430D01*
X001180Y007930D01*
X001430Y008180D01*
X001180Y008430D01*
X001180Y008930D01*
X001430Y009180D01*
X001930Y009180D01*
X002180Y008930D01*
X001050Y008680D02*
X000770Y008680D01*
X000910Y008820D02*
X000910Y008540D01*
X000930Y007850D02*
X000930Y007570D01*
X001192Y006180D02*
X002168Y006180D01*
X002680Y005786D02*
X002680Y004574D01*
X002168Y004180D02*
X001180Y004180D01*
X000680Y004574D02*
X000680Y005786D01*
X001180Y005180D02*
X001182Y005224D01*
X001188Y005268D01*
X001198Y005311D01*
X001211Y005353D01*
X001228Y005394D01*
X001249Y005433D01*
X001273Y005470D01*
X001300Y005505D01*
X001330Y005537D01*
X001363Y005567D01*
X001399Y005593D01*
X001436Y005617D01*
X001476Y005636D01*
X001517Y005653D01*
X001560Y005665D01*
X001603Y005674D01*
X001647Y005679D01*
X001691Y005680D01*
X001735Y005677D01*
X001779Y005670D01*
X001822Y005659D01*
X001864Y005645D01*
X001904Y005627D01*
X001943Y005605D01*
X001979Y005581D01*
X002013Y005553D01*
X002045Y005522D01*
X002074Y005488D01*
X002100Y005452D01*
X002122Y005414D01*
X002141Y005374D01*
X002156Y005332D01*
X002168Y005290D01*
X002176Y005246D01*
X002180Y005202D01*
X002180Y005158D01*
X002176Y005114D01*
X002168Y005070D01*
X002156Y005028D01*
X002141Y004986D01*
X002122Y004946D01*
X002100Y004908D01*
X002074Y004872D01*
X002045Y004838D01*
X002013Y004807D01*
X001979Y004779D01*
X001943Y004755D01*
X001904Y004733D01*
X001864Y004715D01*
X001822Y004701D01*
X001779Y004690D01*
X001735Y004683D01*
X001691Y004680D01*
X001647Y004681D01*
X001603Y004686D01*
X001560Y004695D01*
X001517Y004707D01*
X001476Y004724D01*
X001436Y004743D01*
X001399Y004767D01*
X001363Y004793D01*
X001330Y004823D01*
X001300Y004855D01*
X001273Y004890D01*
X001249Y004927D01*
X001228Y004966D01*
X001211Y005007D01*
X001198Y005049D01*
X001188Y005092D01*
X001182Y005136D01*
X001180Y005180D01*
X001210Y003120D02*
X001210Y002840D01*
X001070Y002980D02*
X001350Y002980D01*
X005680Y001430D02*
X005680Y000930D01*
X005930Y000680D01*
X006430Y000680D01*
X006680Y000930D01*
X006930Y000680D01*
X007430Y000680D01*
X007680Y000930D01*
X007930Y000680D01*
X008430Y000680D01*
X008680Y000930D01*
X008930Y000680D01*
X009430Y000680D01*
X009680Y000930D01*
X009930Y000680D01*
X010430Y000680D01*
X010680Y000930D01*
X010930Y000680D01*
X011430Y000680D01*
X011680Y000930D01*
X011930Y000680D01*
X012430Y000680D01*
X012680Y000930D01*
X012680Y001430D01*
X012430Y001680D01*
X011930Y001680D01*
X011680Y001430D01*
X011430Y001680D01*
X010930Y001680D01*
X010680Y001430D01*
X010430Y001680D01*
X009930Y001680D01*
X009680Y001430D01*
X009430Y001680D01*
X008930Y001680D01*
X008680Y001430D01*
X008430Y001680D01*
X007930Y001680D01*
X007680Y001430D01*
X007430Y001680D01*
X006930Y001680D01*
X006680Y001430D01*
X006430Y001680D01*
X005930Y001680D01*
X005680Y001430D01*
X005820Y001820D02*
X006030Y001820D01*
X006100Y001890D01*
X006100Y002170D01*
X006030Y002240D01*
X005820Y002240D01*
X005820Y001820D01*
X006280Y001820D02*
X006280Y001890D01*
X006561Y002170D01*
X006561Y002240D01*
X006280Y002240D01*
X006870Y002240D02*
X006870Y001820D01*
X007080Y001820D01*
X007150Y001890D01*
X007150Y002170D01*
X007080Y002240D01*
X006870Y002240D01*
X007330Y002170D02*
X007330Y002100D01*
X007400Y002030D01*
X007541Y002030D01*
X007611Y001960D01*
X007611Y001890D01*
X007541Y001820D01*
X007400Y001820D01*
X007330Y001890D01*
X007330Y001960D01*
X007400Y002030D01*
X007541Y002030D02*
X007611Y002100D01*
X007611Y002170D01*
X007541Y002240D01*
X007400Y002240D01*
X007330Y002170D01*
X007870Y002240D02*
X007870Y001820D01*
X008080Y001820D01*
X008150Y001890D01*
X008150Y002170D01*
X008080Y002240D01*
X007870Y002240D01*
X008330Y002170D02*
X008330Y002100D01*
X008400Y002030D01*
X008611Y002030D01*
X008611Y001890D02*
X008611Y002170D01*
X008541Y002240D01*
X008400Y002240D01*
X008330Y002170D01*
X008330Y001890D02*
X008400Y001820D01*
X008541Y001820D01*
X008611Y001890D01*
X008970Y001820D02*
X008970Y002030D01*
X009040Y002100D01*
X009320Y002100D01*
X009390Y002030D01*
X009390Y001820D01*
X008970Y001820D01*
X009110Y002280D02*
X008970Y002421D01*
X009390Y002421D01*
X009390Y002561D02*
X009390Y002280D01*
X009320Y002741D02*
X009040Y002741D01*
X008970Y002811D01*
X008970Y002951D01*
X009040Y003021D01*
X009320Y002741D01*
X009390Y002811D01*
X009390Y002951D01*
X009320Y003021D01*
X009040Y003021D01*
X010970Y002951D02*
X010970Y002811D01*
X011040Y002741D01*
X010970Y002951D02*
X011040Y003021D01*
X011110Y003021D01*
X011390Y002741D01*
X011390Y003021D01*
X011390Y002561D02*
X011390Y002280D01*
X011390Y002421D02*
X010970Y002421D01*
X011110Y002280D01*
X011040Y002100D02*
X010970Y002030D01*
X010970Y001820D01*
X011390Y001820D01*
X011390Y002030D01*
X011320Y002100D01*
X011040Y002100D01*
X011870Y002240D02*
X011870Y001820D01*
X012080Y001820D01*
X012150Y001890D01*
X012150Y002170D01*
X012080Y002240D01*
X011870Y002240D01*
X012330Y002100D02*
X012471Y002240D01*
X012471Y001820D01*
X012611Y001820D02*
X012330Y001820D01*
X012791Y001890D02*
X012861Y001820D01*
X013001Y001820D01*
X013071Y001890D01*
X013071Y001960D01*
X013001Y002030D01*
X012931Y002030D01*
X013001Y002030D02*
X013071Y002100D01*
X013071Y002170D01*
X013001Y002240D01*
X012861Y002240D01*
X012791Y002170D01*
X013430Y002680D02*
X013180Y002930D01*
X013180Y003430D01*
X013430Y003680D01*
X013180Y003930D01*
X013180Y004430D01*
X013430Y004680D01*
X013180Y004930D01*
X013180Y005430D01*
X013430Y005680D01*
X013180Y005930D01*
X013180Y006430D01*
X013430Y006680D01*
X013180Y006930D01*
X013180Y007430D01*
X013430Y007680D01*
X013180Y007930D01*
X013180Y008430D01*
X013430Y008680D01*
X013180Y008930D01*
X013180Y009430D01*
X013430Y009680D01*
X013180Y009930D01*
X013180Y010430D01*
X013430Y010680D01*
X013930Y010680D01*
X014180Y010430D01*
X014180Y009930D01*
X013930Y009680D01*
X014180Y009430D01*
X014180Y008930D01*
X013930Y008680D01*
X014180Y008430D01*
X014180Y007930D01*
X013930Y007680D01*
X014180Y007430D01*
X014180Y006930D01*
X013930Y006680D01*
X014180Y006430D01*
X014180Y005930D01*
X013930Y005680D01*
X014180Y005430D01*
X014180Y004930D01*
X013930Y004680D01*
X014180Y004430D01*
X014180Y003930D01*
X013930Y003680D01*
X014180Y003430D01*
X014180Y002930D01*
X013930Y002680D01*
X013430Y002680D01*
X013011Y003040D02*
X012941Y002970D01*
X012800Y002970D01*
X012730Y003040D01*
X013011Y003320D01*
X013011Y003040D01*
X013011Y003320D02*
X012941Y003390D01*
X012800Y003390D01*
X012730Y003320D01*
X012730Y003040D01*
X012550Y002970D02*
X012550Y003250D01*
X012410Y003390D01*
X012270Y003250D01*
X012270Y002970D01*
X012270Y003180D02*
X012550Y003180D01*
X012550Y003970D02*
X012550Y004250D01*
X012410Y004390D01*
X012270Y004250D01*
X012270Y003970D01*
X012270Y004180D02*
X012550Y004180D01*
X012730Y004250D02*
X012871Y004390D01*
X012871Y003970D01*
X013011Y003970D02*
X012730Y003970D01*
X012730Y004970D02*
X013011Y005250D01*
X013011Y005320D01*
X012941Y005390D01*
X012800Y005390D01*
X012730Y005320D01*
X012550Y005250D02*
X012550Y004970D01*
X012730Y004970D02*
X013011Y004970D01*
X012550Y005180D02*
X012270Y005180D01*
X012270Y005250D02*
X012410Y005390D01*
X012550Y005250D01*
X012270Y005250D02*
X012270Y004970D01*
X012270Y005970D02*
X012270Y006250D01*
X012410Y006390D01*
X012550Y006250D01*
X012550Y005970D01*
X012730Y006040D02*
X012800Y005970D01*
X012941Y005970D01*
X013011Y006040D01*
X013011Y006110D01*
X012941Y006180D01*
X012871Y006180D01*
X012941Y006180D02*
X013011Y006250D01*
X013011Y006320D01*
X012941Y006390D01*
X012800Y006390D01*
X012730Y006320D01*
X012550Y006180D02*
X012270Y006180D01*
X012270Y006920D02*
X012270Y007200D01*
X012410Y007340D01*
X012550Y007200D01*
X012550Y006920D01*
X012550Y007130D02*
X012270Y007130D01*
X012730Y007130D02*
X013011Y007130D01*
X012941Y006920D02*
X012941Y007340D01*
X012730Y007130D01*
X012800Y007970D02*
X012730Y008040D01*
X012800Y007970D02*
X012941Y007970D01*
X013011Y008040D01*
X013011Y008180D01*
X012941Y008250D01*
X012871Y008250D01*
X012730Y008180D01*
X012730Y008390D01*
X013011Y008390D01*
X012550Y008250D02*
X012550Y007970D01*
X012550Y008180D02*
X012270Y008180D01*
X012270Y008250D02*
X012410Y008390D01*
X012550Y008250D01*
X012270Y008250D02*
X012270Y007970D01*
X012270Y008970D02*
X012270Y009250D01*
X012410Y009390D01*
X012550Y009250D01*
X012550Y008970D01*
X012730Y009040D02*
X012800Y008970D01*
X012941Y008970D01*
X013011Y009040D01*
X013011Y009110D01*
X012941Y009180D01*
X012730Y009180D01*
X012730Y009040D01*
X012730Y009180D02*
X012871Y009320D01*
X013011Y009390D01*
X012550Y009180D02*
X012270Y009180D01*
X012175Y010286D02*
X011624Y010286D01*
X011348Y010404D02*
X011348Y010680D01*
X011112Y010444D01*
X011112Y010916D01*
X011348Y010680D01*
X011348Y010956D01*
X011624Y011074D02*
X012175Y011074D01*
X012175Y010286D01*
X010836Y010286D02*
X010285Y010286D01*
X010285Y011074D01*
X010836Y011074D01*
X010930Y012180D02*
X010430Y012180D01*
X010180Y012430D01*
X009930Y012180D01*
X009430Y012180D01*
X009180Y012430D01*
X008930Y012180D01*
X008430Y012180D01*
X008180Y012430D01*
X007930Y012180D01*
X007430Y012180D01*
X007180Y012430D01*
X006930Y012180D01*
X006430Y012180D01*
X006180Y012430D01*
X005930Y012180D01*
X005430Y012180D01*
X005180Y012430D01*
X005180Y012930D01*
X005430Y013180D01*
X005930Y013180D01*
X006180Y012930D01*
X006430Y013180D01*
X006930Y013180D01*
X007180Y012930D01*
X007430Y013180D01*
X007930Y013180D01*
X008180Y012930D01*
X008430Y013180D01*
X008930Y013180D01*
X009180Y012930D01*
X009430Y013180D01*
X009930Y013180D01*
X010180Y012930D01*
X010430Y013180D01*
X010930Y013180D01*
X011180Y012930D01*
X011180Y012430D01*
X010930Y012180D01*
X013420Y011150D02*
X013420Y010870D01*
X013420Y011080D02*
X013700Y011080D01*
X013700Y011150D02*
X013700Y010870D01*
X013880Y010870D02*
X013880Y010940D01*
X014161Y011220D01*
X014161Y011290D01*
X013880Y011290D01*
X013700Y011150D02*
X013560Y011290D01*
X013420Y011150D01*
X010060Y007560D02*
X007440Y007560D01*
X007300Y007420D01*
X007300Y004800D01*
X010060Y004800D01*
X010060Y007560D01*
X007180Y007630D02*
X007182Y007645D01*
X007187Y007659D01*
X007196Y007671D01*
X007208Y007681D01*
X007221Y007687D01*
X007236Y007690D01*
X007251Y007689D01*
X007266Y007684D01*
X007278Y007676D01*
X007289Y007665D01*
X007296Y007652D01*
X007300Y007638D01*
X007300Y007622D01*
X007296Y007608D01*
X007289Y007595D01*
X007278Y007584D01*
X007266Y007576D01*
X007251Y007571D01*
X007236Y007570D01*
X007221Y007573D01*
X007208Y007579D01*
X007196Y007589D01*
X007187Y007601D01*
X007182Y007615D01*
X007180Y007630D01*
X005520Y009520D02*
X005380Y009520D01*
X005310Y009590D01*
X005590Y009870D01*
X005590Y009590D01*
X005520Y009520D01*
X005310Y009590D02*
X005310Y009870D01*
X005380Y009940D01*
X005520Y009940D01*
X005590Y009870D01*
X005129Y009870D02*
X005129Y009590D01*
X005059Y009520D01*
X004849Y009520D01*
X004849Y009940D01*
X005059Y009940D01*
X005129Y009870D01*
D11*
X002412Y003037D02*
X002298Y003037D01*
X002242Y002980D01*
X002242Y002867D01*
X002298Y002810D01*
X002412Y002810D01*
X002469Y002867D01*
X002469Y002980D01*
X002412Y003037D01*
X002100Y002980D02*
X002100Y002810D01*
X001987Y002810D02*
X001987Y002980D01*
X002044Y003037D01*
X002100Y002980D01*
X001987Y002980D02*
X001930Y003037D01*
X001873Y003037D01*
X001873Y002810D01*
X003710Y002823D02*
X004050Y002823D01*
X004050Y002653D01*
X003993Y002597D01*
X003880Y002597D01*
X003823Y002653D01*
X003823Y002823D01*
X003880Y002455D02*
X003823Y002398D01*
X003823Y002228D01*
X004050Y002228D01*
X004050Y002087D02*
X004050Y001917D01*
X003993Y001860D01*
X003880Y001860D01*
X003823Y001917D01*
X003823Y002087D01*
X004107Y002087D01*
X004163Y002030D01*
X004163Y001973D01*
X004050Y001549D02*
X003993Y001492D01*
X003766Y001492D01*
X003823Y001435D02*
X003823Y001549D01*
X003823Y001294D02*
X003823Y001124D01*
X003880Y001067D01*
X003937Y001124D01*
X003937Y001237D01*
X003993Y001294D01*
X004050Y001237D01*
X004050Y001067D01*
X003823Y000930D02*
X003823Y000873D01*
X003937Y000760D01*
X004050Y000760D02*
X003823Y000760D01*
X003880Y002455D02*
X004050Y002455D01*
M02*
