G75*
%MOIN*%
%OFA0B0*%
%FSLAX24Y24*%
%IPPOS*%
%LPD*%
%AMOC8*
5,1,8,0,0,1.08239X$1,22.5*
%
%ADD10C,0.0740*%
%ADD11OC8,0.0740*%
%ADD12C,0.0160*%
%ADD13C,0.0356*%
%ADD14C,0.0100*%
D10*
X004180Y003680D03*
X004180Y004680D03*
X004180Y005680D03*
X004180Y006680D03*
X004180Y007680D03*
X004180Y008680D03*
X004180Y009680D03*
X001680Y008680D03*
X001680Y007680D03*
X005680Y012680D03*
X006680Y012680D03*
X007680Y012680D03*
X008680Y012680D03*
X009680Y012680D03*
X010680Y012680D03*
X013680Y010180D03*
X013680Y009180D03*
X013680Y008180D03*
X013680Y007180D03*
X013680Y006180D03*
X013680Y005180D03*
X013680Y004180D03*
X013680Y003180D03*
X012180Y001180D03*
X011180Y001180D03*
X010180Y001180D03*
X009180Y001180D03*
X008180Y001180D03*
X007180Y001180D03*
X006180Y001180D03*
D11*
X003180Y001180D03*
X003180Y002180D03*
X002180Y002180D03*
X002180Y001180D03*
X001180Y001180D03*
X001180Y002180D03*
D12*
X000410Y000410D02*
X000410Y013450D01*
X014450Y013450D01*
X014450Y000410D01*
X011735Y000410D01*
X011989Y000664D01*
X012071Y000630D01*
X012289Y000630D01*
X012492Y000714D01*
X012646Y000868D01*
X012730Y001071D01*
X012730Y001289D01*
X012646Y001492D01*
X012492Y001646D01*
X012289Y001730D01*
X012071Y001730D01*
X011868Y001646D01*
X011714Y001492D01*
X011680Y001410D01*
X011646Y001492D01*
X011492Y001646D01*
X011289Y001730D01*
X011071Y001730D01*
X010868Y001646D01*
X010714Y001492D01*
X010680Y001410D01*
X010646Y001492D01*
X010492Y001646D01*
X010289Y001730D01*
X010071Y001730D01*
X010044Y001719D01*
X010147Y001822D01*
X010251Y001822D01*
X010383Y001876D01*
X010484Y001977D01*
X010538Y002109D01*
X010538Y002251D01*
X010484Y002383D01*
X010383Y002484D01*
X010251Y002538D01*
X010109Y002538D01*
X009977Y002484D01*
X009876Y002383D01*
X009822Y002251D01*
X009822Y002147D01*
X009685Y002010D01*
X004625Y002010D01*
X003575Y003060D01*
X002535Y003060D01*
X002400Y002925D01*
X002205Y002730D01*
X001952Y002730D01*
X001680Y002458D01*
X001408Y002730D01*
X000952Y002730D01*
X000630Y002408D01*
X000630Y001952D01*
X000902Y001680D01*
X000630Y001408D01*
X000630Y000952D01*
X000952Y000630D01*
X001408Y000630D01*
X001680Y000902D01*
X001952Y000630D01*
X002005Y000630D01*
X002225Y000410D01*
X000410Y000410D01*
X000410Y000497D02*
X002138Y000497D01*
X001927Y000656D02*
X001433Y000656D01*
X001592Y000814D02*
X001768Y000814D01*
X000927Y000656D02*
X000410Y000656D01*
X000410Y000814D02*
X000768Y000814D01*
X000630Y000973D02*
X000410Y000973D01*
X000410Y001131D02*
X000630Y001131D01*
X000630Y001290D02*
X000410Y001290D01*
X000410Y001448D02*
X000670Y001448D01*
X000829Y001607D02*
X000410Y001607D01*
X000410Y001765D02*
X000817Y001765D01*
X000659Y001924D02*
X000410Y001924D01*
X000410Y002082D02*
X000630Y002082D01*
X000630Y002241D02*
X000410Y002241D01*
X000410Y002399D02*
X000630Y002399D01*
X000780Y002558D02*
X000410Y002558D01*
X000410Y002716D02*
X000938Y002716D01*
X001422Y002716D02*
X001938Y002716D01*
X001780Y002558D02*
X001580Y002558D01*
X002349Y002875D02*
X000410Y002875D01*
X000410Y003033D02*
X002508Y003033D01*
X003200Y002200D02*
X003730Y002200D01*
X003730Y002255D01*
X004300Y001685D01*
X004435Y001550D01*
X005772Y001550D01*
X005714Y001492D01*
X005630Y001289D01*
X005630Y001071D01*
X005714Y000868D01*
X005868Y000714D01*
X005877Y000710D01*
X003488Y000710D01*
X003730Y000952D01*
X003730Y001408D01*
X003458Y001680D01*
X003730Y001952D01*
X003730Y002160D01*
X003200Y002160D01*
X003200Y002200D01*
X003543Y001765D02*
X004220Y001765D01*
X004378Y001607D02*
X003531Y001607D01*
X003690Y001448D02*
X005696Y001448D01*
X005630Y001290D02*
X003730Y001290D01*
X003730Y001131D02*
X005630Y001131D01*
X005671Y000973D02*
X003730Y000973D01*
X003592Y000814D02*
X005768Y000814D01*
X004553Y002082D02*
X009757Y002082D01*
X009822Y002241D02*
X004395Y002241D01*
X004236Y002399D02*
X009893Y002399D01*
X010467Y002399D02*
X014450Y002399D01*
X014450Y002241D02*
X010538Y002241D01*
X010527Y002082D02*
X014450Y002082D01*
X014450Y001924D02*
X010430Y001924D01*
X010531Y001607D02*
X010829Y001607D01*
X010696Y001448D02*
X010664Y001448D01*
X010090Y001765D02*
X014450Y001765D01*
X014450Y001607D02*
X012531Y001607D01*
X012664Y001448D02*
X014450Y001448D01*
X014450Y001290D02*
X012730Y001290D01*
X012730Y001131D02*
X014450Y001131D01*
X014450Y000973D02*
X012689Y000973D01*
X012592Y000814D02*
X014450Y000814D01*
X014450Y000656D02*
X012351Y000656D01*
X012009Y000656D02*
X011981Y000656D01*
X011822Y000497D02*
X014450Y000497D01*
X014450Y002558D02*
X004078Y002558D01*
X003919Y002716D02*
X013366Y002716D01*
X013368Y002714D02*
X013571Y002630D01*
X013789Y002630D01*
X013992Y002714D01*
X014146Y002868D01*
X014230Y003071D01*
X014230Y003289D01*
X014146Y003492D01*
X013992Y003646D01*
X013910Y003680D01*
X013992Y003714D01*
X014146Y003868D01*
X014230Y004071D01*
X014230Y004289D01*
X014146Y004492D01*
X013992Y004646D01*
X013910Y004680D01*
X013992Y004714D01*
X014146Y004868D01*
X014230Y005071D01*
X014230Y005289D01*
X014146Y005492D01*
X013992Y005646D01*
X013910Y005680D01*
X013992Y005714D01*
X014146Y005868D01*
X014230Y006071D01*
X014230Y006289D01*
X014146Y006492D01*
X013992Y006646D01*
X013910Y006680D01*
X013992Y006714D01*
X014146Y006868D01*
X014230Y007071D01*
X014230Y007289D01*
X014146Y007492D01*
X013992Y007646D01*
X013910Y007680D01*
X013992Y007714D01*
X014146Y007868D01*
X014230Y008071D01*
X014230Y008289D01*
X014146Y008492D01*
X013992Y008646D01*
X013910Y008680D01*
X013992Y008714D01*
X014146Y008868D01*
X014230Y009071D01*
X014230Y009289D01*
X014146Y009492D01*
X013992Y009646D01*
X013910Y009680D01*
X013992Y009714D01*
X014146Y009868D01*
X014230Y010071D01*
X014230Y010289D01*
X014146Y010492D01*
X013992Y010646D01*
X013789Y010730D01*
X013571Y010730D01*
X013368Y010646D01*
X013214Y010492D01*
X013180Y010410D01*
X010585Y010410D01*
X010450Y010275D01*
X009160Y008985D01*
X009160Y010775D01*
X007910Y012025D01*
X007910Y012180D01*
X007992Y012214D01*
X008146Y012368D01*
X008180Y012450D01*
X008214Y012368D01*
X008368Y012214D01*
X008571Y012130D01*
X008789Y012130D01*
X008992Y012214D01*
X009146Y012368D01*
X009180Y012450D01*
X009214Y012368D01*
X009368Y012214D01*
X009571Y012130D01*
X009789Y012130D01*
X009992Y012214D01*
X010146Y012368D01*
X010180Y012450D01*
X010210Y012392D01*
X010260Y012322D01*
X010322Y012260D01*
X010392Y012210D01*
X010469Y012170D01*
X010551Y012144D01*
X010637Y012130D01*
X010660Y012130D01*
X010660Y012660D01*
X010700Y012660D01*
X010700Y012700D01*
X010660Y012700D01*
X010660Y013230D01*
X010637Y013230D01*
X010551Y013216D01*
X010469Y013190D01*
X010392Y013150D01*
X010322Y013100D01*
X010260Y013038D01*
X010210Y012968D01*
X010180Y012910D01*
X010146Y012992D01*
X009992Y013146D01*
X009789Y013230D01*
X009571Y013230D01*
X009368Y013146D01*
X009214Y012992D01*
X009180Y012910D01*
X009146Y012992D01*
X008992Y013146D01*
X008789Y013230D01*
X008571Y013230D01*
X008368Y013146D01*
X008214Y012992D01*
X008180Y012910D01*
X008146Y012992D01*
X007992Y013146D01*
X007789Y013230D01*
X007571Y013230D01*
X007368Y013146D01*
X007214Y012992D01*
X007180Y012910D01*
X007146Y012992D01*
X006992Y013146D01*
X006789Y013230D01*
X006571Y013230D01*
X006368Y013146D01*
X006214Y012992D01*
X006180Y012910D01*
X006146Y012992D01*
X005992Y013146D01*
X005789Y013230D01*
X005571Y013230D01*
X005368Y013146D01*
X005214Y012992D01*
X005130Y012789D01*
X005130Y012571D01*
X005214Y012368D01*
X005368Y012214D01*
X005571Y012130D01*
X005705Y012130D01*
X004485Y010910D01*
X003935Y010910D01*
X003235Y010210D01*
X003100Y010075D01*
X003100Y009435D01*
X003664Y008871D01*
X003630Y008789D01*
X003630Y008571D01*
X003714Y008368D01*
X003868Y008214D01*
X003950Y008180D01*
X003868Y008146D01*
X003714Y007992D01*
X003630Y007789D01*
X003630Y007571D01*
X003714Y007368D01*
X003868Y007214D01*
X003950Y007180D01*
X003868Y007146D01*
X003714Y006992D01*
X003630Y006789D01*
X003630Y006571D01*
X003714Y006368D01*
X003868Y006214D01*
X003950Y006180D01*
X003868Y006146D01*
X003714Y005992D01*
X003630Y005789D01*
X003630Y005571D01*
X003714Y005368D01*
X003868Y005214D01*
X003950Y005180D01*
X003868Y005146D01*
X003714Y004992D01*
X003630Y004789D01*
X003630Y004571D01*
X003714Y004368D01*
X003868Y004214D01*
X003950Y004180D01*
X003868Y004146D01*
X003714Y003992D01*
X003630Y003789D01*
X003630Y003571D01*
X003714Y003368D01*
X003868Y003214D01*
X004071Y003130D01*
X004289Y003130D01*
X004492Y003214D01*
X004646Y003368D01*
X004730Y003571D01*
X004730Y003789D01*
X004646Y003992D01*
X004492Y004146D01*
X004410Y004180D01*
X004492Y004214D01*
X004646Y004368D01*
X004730Y004571D01*
X004730Y004789D01*
X004646Y004992D01*
X004492Y005146D01*
X004410Y005180D01*
X004492Y005214D01*
X004646Y005368D01*
X004730Y005571D01*
X004730Y005789D01*
X004646Y005992D01*
X004492Y006146D01*
X004410Y006180D01*
X004492Y006214D01*
X004646Y006368D01*
X004730Y006571D01*
X004730Y006789D01*
X004646Y006992D01*
X004492Y007146D01*
X004410Y007180D01*
X004492Y007214D01*
X004646Y007368D01*
X004730Y007571D01*
X004730Y007789D01*
X004646Y007992D01*
X004492Y008146D01*
X004410Y008180D01*
X004492Y008214D01*
X004646Y008368D01*
X004730Y008571D01*
X004730Y008789D01*
X004646Y008992D01*
X004492Y009146D01*
X004410Y009180D01*
X004492Y009214D01*
X004646Y009368D01*
X004730Y009571D01*
X004730Y009789D01*
X004696Y009871D01*
X006475Y011650D01*
X007625Y011650D01*
X007630Y011655D01*
X008700Y010585D01*
X008700Y007525D01*
X008535Y007360D01*
X008506Y007360D01*
X008433Y007434D01*
X008301Y007488D01*
X008159Y007488D01*
X008027Y007434D01*
X007926Y007333D01*
X007872Y007201D01*
X007872Y007059D01*
X007926Y006927D01*
X008027Y006826D01*
X008159Y006772D01*
X008301Y006772D01*
X008433Y006826D01*
X008506Y006900D01*
X008725Y006900D01*
X009025Y007200D01*
X009054Y007229D01*
X009022Y007151D01*
X009022Y007009D01*
X009076Y006877D01*
X009177Y006776D01*
X009309Y006722D01*
X009451Y006722D01*
X009583Y006776D01*
X009684Y006877D01*
X009738Y007009D01*
X009738Y007151D01*
X009684Y007283D01*
X009610Y007356D01*
X009610Y008785D01*
X010775Y009950D01*
X013180Y009950D01*
X013214Y009868D01*
X013368Y009714D01*
X013450Y009680D01*
X013368Y009646D01*
X013214Y009492D01*
X013180Y009410D01*
X012785Y009410D01*
X012650Y009275D01*
X010850Y007475D01*
X010850Y006006D01*
X010776Y005933D01*
X010722Y005801D01*
X010722Y005659D01*
X010776Y005527D01*
X010877Y005426D01*
X011009Y005372D01*
X011151Y005372D01*
X011283Y005426D01*
X011384Y005527D01*
X011438Y005659D01*
X011438Y005801D01*
X011384Y005933D01*
X011310Y006006D01*
X011310Y007285D01*
X012975Y008950D01*
X013180Y008950D01*
X013214Y008868D01*
X013368Y008714D01*
X013450Y008680D01*
X013368Y008646D01*
X013214Y008492D01*
X013130Y008289D01*
X013130Y008071D01*
X013214Y007868D01*
X013368Y007714D01*
X013450Y007680D01*
X013368Y007646D01*
X013214Y007492D01*
X013130Y007289D01*
X013130Y007071D01*
X013214Y006868D01*
X013368Y006714D01*
X013450Y006680D01*
X013368Y006646D01*
X013214Y006492D01*
X013130Y006289D01*
X013130Y006071D01*
X013214Y005868D01*
X013368Y005714D01*
X013450Y005680D01*
X013368Y005646D01*
X013214Y005492D01*
X013130Y005289D01*
X013130Y005071D01*
X013214Y004868D01*
X013368Y004714D01*
X013450Y004680D01*
X013368Y004646D01*
X013214Y004492D01*
X013130Y004289D01*
X013130Y004071D01*
X013214Y003868D01*
X013368Y003714D01*
X013450Y003680D01*
X013368Y003646D01*
X013214Y003492D01*
X013130Y003289D01*
X013130Y003071D01*
X013214Y002868D01*
X013368Y002714D01*
X013211Y002875D02*
X007881Y002875D01*
X007884Y002877D02*
X007938Y003009D01*
X007938Y003113D01*
X009760Y004935D01*
X013186Y004935D01*
X013130Y005094D02*
X009760Y005094D01*
X009760Y005252D02*
X013130Y005252D01*
X013180Y005411D02*
X011244Y005411D01*
X011401Y005569D02*
X013291Y005569D01*
X013355Y005728D02*
X011438Y005728D01*
X011403Y005886D02*
X013206Y005886D01*
X013141Y006045D02*
X011310Y006045D01*
X011310Y006203D02*
X013130Y006203D01*
X013160Y006362D02*
X011310Y006362D01*
X011310Y006520D02*
X013242Y006520D01*
X013446Y006679D02*
X011310Y006679D01*
X011310Y006837D02*
X013245Y006837D01*
X013161Y006996D02*
X011310Y006996D01*
X011310Y007154D02*
X013130Y007154D01*
X013140Y007313D02*
X011338Y007313D01*
X011496Y007471D02*
X013205Y007471D01*
X013352Y007630D02*
X011655Y007630D01*
X011813Y007788D02*
X013294Y007788D01*
X013181Y007947D02*
X011972Y007947D01*
X012130Y008105D02*
X013130Y008105D01*
X013130Y008264D02*
X012289Y008264D01*
X012447Y008422D02*
X013185Y008422D01*
X013303Y008581D02*
X012606Y008581D01*
X012764Y008739D02*
X013343Y008739D01*
X013202Y008898D02*
X012923Y008898D01*
X012589Y009215D02*
X010040Y009215D01*
X010198Y009373D02*
X012748Y009373D01*
X012431Y009056D02*
X009881Y009056D01*
X009723Y008898D02*
X012272Y008898D01*
X012114Y008739D02*
X009610Y008739D01*
X009610Y008581D02*
X011955Y008581D01*
X011797Y008422D02*
X009610Y008422D01*
X009610Y008264D02*
X011638Y008264D01*
X011480Y008105D02*
X009610Y008105D01*
X009610Y007947D02*
X011321Y007947D01*
X011163Y007788D02*
X009610Y007788D01*
X009610Y007630D02*
X011004Y007630D01*
X010850Y007471D02*
X009610Y007471D01*
X009654Y007313D02*
X010850Y007313D01*
X010850Y007154D02*
X009737Y007154D01*
X009733Y006996D02*
X010850Y006996D01*
X010850Y006837D02*
X009643Y006837D01*
X009117Y006837D02*
X008443Y006837D01*
X008821Y006996D02*
X009027Y006996D01*
X009023Y007154D02*
X008979Y007154D01*
X008646Y007471D02*
X008343Y007471D01*
X008117Y007471D02*
X006060Y007471D01*
X006060Y007313D02*
X007918Y007313D01*
X007872Y007154D02*
X006060Y007154D01*
X006060Y006996D02*
X007898Y006996D01*
X008017Y006837D02*
X006060Y006837D01*
X006060Y006679D02*
X010850Y006679D01*
X010850Y006520D02*
X006060Y006520D01*
X006060Y006362D02*
X010850Y006362D01*
X010850Y006203D02*
X009686Y006203D01*
X009733Y006184D02*
X009601Y006238D01*
X009459Y006238D01*
X009327Y006184D01*
X009226Y006083D01*
X009172Y005951D01*
X009172Y005809D01*
X009226Y005677D01*
X009300Y005604D01*
X009300Y005125D01*
X007613Y003438D01*
X007509Y003438D01*
X007377Y003384D01*
X007276Y003283D01*
X007222Y003151D01*
X007222Y003009D01*
X007276Y002877D01*
X007377Y002776D01*
X007509Y002722D01*
X007651Y002722D01*
X007783Y002776D01*
X007884Y002877D01*
X007938Y003033D02*
X013146Y003033D01*
X013130Y003192D02*
X008017Y003192D01*
X008175Y003350D02*
X013155Y003350D01*
X013231Y003509D02*
X008334Y003509D01*
X008492Y003667D02*
X013419Y003667D01*
X013257Y003826D02*
X008651Y003826D01*
X008809Y003984D02*
X013166Y003984D01*
X013130Y004143D02*
X008968Y004143D01*
X009126Y004301D02*
X013135Y004301D01*
X013200Y004460D02*
X009285Y004460D01*
X009443Y004618D02*
X013340Y004618D01*
X013306Y004777D02*
X009602Y004777D01*
X009760Y004935D02*
X009760Y005604D01*
X009834Y005677D01*
X009888Y005809D01*
X009888Y005951D01*
X009834Y006083D01*
X009733Y006184D01*
X009849Y006045D02*
X010850Y006045D01*
X010757Y005886D02*
X009888Y005886D01*
X009854Y005728D02*
X010722Y005728D01*
X010759Y005569D02*
X009760Y005569D01*
X009760Y005411D02*
X010916Y005411D01*
X009374Y006203D02*
X006060Y006203D01*
X006060Y006188D02*
X006060Y008554D01*
X006134Y008627D01*
X006188Y008759D01*
X006188Y008901D01*
X006134Y009033D01*
X006033Y009134D01*
X005901Y009188D01*
X005759Y009188D01*
X005627Y009134D01*
X005526Y009033D01*
X005472Y008901D01*
X005472Y008759D01*
X005526Y008627D01*
X005600Y008554D01*
X005600Y005935D01*
X005672Y005863D01*
X005672Y005759D01*
X005726Y005627D01*
X005827Y005526D01*
X005959Y005472D01*
X006101Y005472D01*
X006233Y005526D01*
X006334Y005627D01*
X006388Y005759D01*
X006388Y005901D01*
X006334Y006033D01*
X006233Y006134D01*
X006101Y006188D01*
X006060Y006188D01*
X006322Y006045D02*
X009211Y006045D01*
X009172Y005886D02*
X006388Y005886D01*
X006375Y005728D02*
X009206Y005728D01*
X009300Y005569D02*
X006275Y005569D01*
X005785Y005569D02*
X004729Y005569D01*
X004730Y005728D02*
X005685Y005728D01*
X005649Y005886D02*
X004690Y005886D01*
X004593Y006045D02*
X005600Y006045D01*
X005600Y006203D02*
X004466Y006203D01*
X004639Y006362D02*
X005600Y006362D01*
X005600Y006520D02*
X004709Y006520D01*
X004730Y006679D02*
X005600Y006679D01*
X005600Y006837D02*
X004710Y006837D01*
X004642Y006996D02*
X005600Y006996D01*
X005600Y007154D02*
X004473Y007154D01*
X004590Y007313D02*
X005600Y007313D01*
X005600Y007471D02*
X004689Y007471D01*
X004730Y007630D02*
X005140Y007630D01*
X005159Y007622D02*
X005301Y007622D01*
X005433Y007676D01*
X005534Y007777D01*
X005588Y007909D01*
X005588Y008051D01*
X005534Y008183D01*
X005460Y008256D01*
X005460Y009735D01*
X006025Y010300D01*
X006104Y010300D01*
X006177Y010226D01*
X006309Y010172D01*
X006451Y010172D01*
X006583Y010226D01*
X006684Y010327D01*
X006738Y010459D01*
X006738Y010601D01*
X006684Y010733D01*
X006583Y010834D01*
X006451Y010888D01*
X006309Y010888D01*
X006177Y010834D01*
X006104Y010760D01*
X005835Y010760D01*
X005135Y010060D01*
X005000Y009925D01*
X005000Y008256D01*
X004926Y008183D01*
X004872Y008051D01*
X004872Y007909D01*
X004926Y007777D01*
X005027Y007676D01*
X005159Y007622D01*
X005320Y007630D02*
X005600Y007630D01*
X005600Y007788D02*
X005538Y007788D01*
X005588Y007947D02*
X005600Y007947D01*
X005600Y008105D02*
X005566Y008105D01*
X005600Y008264D02*
X005460Y008264D01*
X005460Y008422D02*
X005600Y008422D01*
X005573Y008581D02*
X005460Y008581D01*
X005460Y008739D02*
X005480Y008739D01*
X005472Y008898D02*
X005460Y008898D01*
X005460Y009056D02*
X005550Y009056D01*
X005460Y009215D02*
X008700Y009215D01*
X008700Y009373D02*
X005460Y009373D01*
X005460Y009532D02*
X008700Y009532D01*
X008700Y009690D02*
X005460Y009690D01*
X005574Y009849D02*
X008700Y009849D01*
X008700Y010007D02*
X005732Y010007D01*
X005891Y010166D02*
X008700Y010166D01*
X008700Y010324D02*
X006680Y010324D01*
X006738Y010483D02*
X008700Y010483D01*
X008644Y010641D02*
X006722Y010641D01*
X006617Y010800D02*
X008485Y010800D01*
X008327Y010958D02*
X005783Y010958D01*
X005942Y011117D02*
X008168Y011117D01*
X008010Y011275D02*
X006100Y011275D01*
X006259Y011434D02*
X007851Y011434D01*
X007693Y011592D02*
X006417Y011592D01*
X006143Y010800D02*
X005625Y010800D01*
X005716Y010641D02*
X005466Y010641D01*
X005557Y010483D02*
X005308Y010483D01*
X005399Y010324D02*
X005149Y010324D01*
X005240Y010166D02*
X004991Y010166D01*
X005082Y010007D02*
X004832Y010007D01*
X004706Y009849D02*
X005000Y009849D01*
X005000Y009690D02*
X004730Y009690D01*
X004714Y009532D02*
X005000Y009532D01*
X005000Y009373D02*
X004648Y009373D01*
X004492Y009215D02*
X005000Y009215D01*
X005000Y009056D02*
X004582Y009056D01*
X004685Y008898D02*
X005000Y008898D01*
X005000Y008739D02*
X004730Y008739D01*
X004730Y008581D02*
X005000Y008581D01*
X005000Y008422D02*
X004668Y008422D01*
X004541Y008264D02*
X005000Y008264D01*
X004894Y008105D02*
X004533Y008105D01*
X004665Y007947D02*
X004872Y007947D01*
X004922Y007788D02*
X004730Y007788D01*
X003887Y007154D02*
X001841Y007154D01*
X001809Y007144D02*
X001891Y007170D01*
X001968Y007210D01*
X002038Y007260D01*
X002100Y007322D01*
X002150Y007392D01*
X002190Y007469D01*
X002216Y007551D01*
X002230Y007637D01*
X002230Y007660D01*
X001700Y007660D01*
X001700Y007700D01*
X002230Y007700D01*
X002230Y007723D01*
X002216Y007809D01*
X002190Y007891D01*
X002150Y007968D01*
X002100Y008038D01*
X002038Y008100D01*
X001968Y008150D01*
X001910Y008180D01*
X001992Y008214D01*
X002146Y008368D01*
X002230Y008571D01*
X002230Y008789D01*
X002146Y008992D01*
X001992Y009146D01*
X001789Y009230D01*
X001571Y009230D01*
X001368Y009146D01*
X001214Y008992D01*
X001130Y008789D01*
X001130Y008571D01*
X001214Y008368D01*
X001368Y008214D01*
X001450Y008180D01*
X001392Y008150D01*
X001322Y008100D01*
X001260Y008038D01*
X001210Y007968D01*
X001170Y007891D01*
X001144Y007809D01*
X001130Y007723D01*
X001130Y007700D01*
X001660Y007700D01*
X001660Y007660D01*
X001700Y007660D01*
X001700Y007130D01*
X001723Y007130D01*
X001809Y007144D01*
X001700Y007154D02*
X001660Y007154D01*
X001660Y007130D02*
X001660Y007660D01*
X001130Y007660D01*
X001130Y007637D01*
X001144Y007551D01*
X001170Y007469D01*
X001210Y007392D01*
X001260Y007322D01*
X001322Y007260D01*
X001392Y007210D01*
X001469Y007170D01*
X001551Y007144D01*
X001637Y007130D01*
X001660Y007130D01*
X001519Y007154D02*
X000410Y007154D01*
X000410Y006996D02*
X003718Y006996D01*
X003650Y006837D02*
X000410Y006837D01*
X000410Y006679D02*
X003630Y006679D01*
X003651Y006520D02*
X000410Y006520D01*
X000410Y006362D02*
X003721Y006362D01*
X003894Y006203D02*
X000410Y006203D01*
X000410Y006045D02*
X003767Y006045D01*
X003670Y005886D02*
X000410Y005886D01*
X000410Y005728D02*
X003630Y005728D01*
X003631Y005569D02*
X000410Y005569D01*
X000410Y005411D02*
X003696Y005411D01*
X003830Y005252D02*
X000410Y005252D01*
X000410Y005094D02*
X003816Y005094D01*
X003690Y004935D02*
X000410Y004935D01*
X000410Y004777D02*
X003630Y004777D01*
X003630Y004618D02*
X000410Y004618D01*
X000410Y004460D02*
X003676Y004460D01*
X003781Y004301D02*
X000410Y004301D01*
X000410Y004143D02*
X003865Y004143D01*
X003711Y003984D02*
X000410Y003984D01*
X000410Y003826D02*
X003645Y003826D01*
X003630Y003667D02*
X000410Y003667D01*
X000410Y003509D02*
X003656Y003509D01*
X003732Y003350D02*
X000410Y003350D01*
X000410Y003192D02*
X003922Y003192D01*
X003602Y003033D02*
X007222Y003033D01*
X007279Y002875D02*
X003761Y002875D01*
X003730Y002241D02*
X003744Y002241D01*
X003730Y002082D02*
X003903Y002082D01*
X004061Y001924D02*
X003701Y001924D01*
X004438Y003192D02*
X007239Y003192D01*
X007344Y003350D02*
X004628Y003350D01*
X004704Y003509D02*
X007683Y003509D01*
X007842Y003667D02*
X004730Y003667D01*
X004715Y003826D02*
X008000Y003826D01*
X008159Y003984D02*
X004649Y003984D01*
X004495Y004143D02*
X008317Y004143D01*
X008476Y004301D02*
X004579Y004301D01*
X004684Y004460D02*
X008634Y004460D01*
X008793Y004618D02*
X004730Y004618D01*
X004730Y004777D02*
X008951Y004777D01*
X009110Y004935D02*
X004670Y004935D01*
X004544Y005094D02*
X009268Y005094D01*
X009300Y005252D02*
X004530Y005252D01*
X004664Y005411D02*
X009300Y005411D01*
X008700Y007630D02*
X006060Y007630D01*
X006060Y007788D02*
X008700Y007788D01*
X008700Y007947D02*
X006060Y007947D01*
X006060Y008105D02*
X008700Y008105D01*
X008700Y008264D02*
X006060Y008264D01*
X006060Y008422D02*
X008700Y008422D01*
X008700Y008581D02*
X006087Y008581D01*
X006180Y008739D02*
X008700Y008739D01*
X008700Y008898D02*
X006188Y008898D01*
X006110Y009056D02*
X008700Y009056D01*
X009160Y009056D02*
X009231Y009056D01*
X009160Y009215D02*
X009389Y009215D01*
X009548Y009373D02*
X009160Y009373D01*
X009160Y009532D02*
X009706Y009532D01*
X009865Y009690D02*
X009160Y009690D01*
X009160Y009849D02*
X010023Y009849D01*
X010182Y010007D02*
X009160Y010007D01*
X009160Y010166D02*
X010340Y010166D01*
X010499Y010324D02*
X009160Y010324D01*
X009160Y010483D02*
X013210Y010483D01*
X013363Y010641D02*
X009160Y010641D01*
X009136Y010800D02*
X014450Y010800D01*
X014450Y010641D02*
X013997Y010641D01*
X014150Y010483D02*
X014450Y010483D01*
X014450Y010324D02*
X014216Y010324D01*
X014230Y010166D02*
X014450Y010166D01*
X014450Y010007D02*
X014204Y010007D01*
X014126Y009849D02*
X014450Y009849D01*
X014450Y009690D02*
X013934Y009690D01*
X014106Y009532D02*
X014450Y009532D01*
X014450Y009373D02*
X014195Y009373D01*
X014230Y009215D02*
X014450Y009215D01*
X014450Y009056D02*
X014224Y009056D01*
X014158Y008898D02*
X014450Y008898D01*
X014450Y008739D02*
X014017Y008739D01*
X014057Y008581D02*
X014450Y008581D01*
X014450Y008422D02*
X014175Y008422D01*
X014230Y008264D02*
X014450Y008264D01*
X014450Y008105D02*
X014230Y008105D01*
X014179Y007947D02*
X014450Y007947D01*
X014450Y007788D02*
X014066Y007788D01*
X014008Y007630D02*
X014450Y007630D01*
X014450Y007471D02*
X014155Y007471D01*
X014220Y007313D02*
X014450Y007313D01*
X014450Y007154D02*
X014230Y007154D01*
X014199Y006996D02*
X014450Y006996D01*
X014450Y006837D02*
X014115Y006837D01*
X013914Y006679D02*
X014450Y006679D01*
X014450Y006520D02*
X014118Y006520D01*
X014200Y006362D02*
X014450Y006362D01*
X014450Y006203D02*
X014230Y006203D01*
X014219Y006045D02*
X014450Y006045D01*
X014450Y005886D02*
X014154Y005886D01*
X014005Y005728D02*
X014450Y005728D01*
X014450Y005569D02*
X014069Y005569D01*
X014180Y005411D02*
X014450Y005411D01*
X014450Y005252D02*
X014230Y005252D01*
X014230Y005094D02*
X014450Y005094D01*
X014450Y004935D02*
X014174Y004935D01*
X014054Y004777D02*
X014450Y004777D01*
X014450Y004618D02*
X014020Y004618D01*
X014160Y004460D02*
X014450Y004460D01*
X014450Y004301D02*
X014225Y004301D01*
X014230Y004143D02*
X014450Y004143D01*
X014450Y003984D02*
X014194Y003984D01*
X014103Y003826D02*
X014450Y003826D01*
X014450Y003667D02*
X013941Y003667D01*
X014129Y003509D02*
X014450Y003509D01*
X014450Y003350D02*
X014205Y003350D01*
X014230Y003192D02*
X014450Y003192D01*
X014450Y003033D02*
X014214Y003033D01*
X014149Y002875D02*
X014450Y002875D01*
X014450Y002716D02*
X013994Y002716D01*
X011829Y001607D02*
X011531Y001607D01*
X011664Y001448D02*
X011696Y001448D01*
X003770Y007313D02*
X002090Y007313D01*
X002190Y007471D02*
X003671Y007471D01*
X003630Y007630D02*
X002229Y007630D01*
X002220Y007788D02*
X003630Y007788D01*
X003695Y007947D02*
X002161Y007947D01*
X002031Y008105D02*
X002529Y008105D01*
X002477Y008126D02*
X002609Y008072D01*
X002751Y008072D01*
X002883Y008126D01*
X002984Y008227D01*
X003038Y008359D01*
X003038Y008501D01*
X002984Y008633D01*
X002910Y008706D01*
X002910Y009404D01*
X002984Y009477D01*
X003038Y009609D01*
X003038Y009751D01*
X002984Y009883D01*
X002883Y009984D01*
X002751Y010038D01*
X002609Y010038D01*
X002477Y009984D01*
X002376Y009883D01*
X002322Y009751D01*
X002322Y009609D01*
X002376Y009477D01*
X002450Y009404D01*
X002450Y008706D01*
X002376Y008633D01*
X002322Y008501D01*
X002322Y008359D01*
X002376Y008227D01*
X002477Y008126D01*
X002361Y008264D02*
X002041Y008264D01*
X002168Y008422D02*
X002322Y008422D01*
X002355Y008581D02*
X002230Y008581D01*
X002230Y008739D02*
X002450Y008739D01*
X002450Y008898D02*
X002185Y008898D01*
X002082Y009056D02*
X002450Y009056D01*
X002450Y009215D02*
X001827Y009215D01*
X001533Y009215D02*
X000410Y009215D01*
X000410Y009373D02*
X002450Y009373D01*
X002354Y009532D02*
X000410Y009532D01*
X000410Y009690D02*
X002322Y009690D01*
X002362Y009849D02*
X000410Y009849D01*
X000410Y010007D02*
X002534Y010007D01*
X002826Y010007D02*
X003100Y010007D01*
X003100Y009849D02*
X002998Y009849D01*
X003038Y009690D02*
X003100Y009690D01*
X003100Y009532D02*
X003006Y009532D01*
X002910Y009373D02*
X003162Y009373D01*
X003320Y009215D02*
X002910Y009215D01*
X002910Y009056D02*
X003479Y009056D01*
X003637Y008898D02*
X002910Y008898D01*
X002910Y008739D02*
X003630Y008739D01*
X003630Y008581D02*
X003005Y008581D01*
X003038Y008422D02*
X003692Y008422D01*
X003819Y008264D02*
X002999Y008264D01*
X002831Y008105D02*
X003827Y008105D01*
X001700Y007630D02*
X001660Y007630D01*
X001660Y007471D02*
X001700Y007471D01*
X001700Y007313D02*
X001660Y007313D01*
X001270Y007313D02*
X000410Y007313D01*
X000410Y007471D02*
X001170Y007471D01*
X001131Y007630D02*
X000410Y007630D01*
X000410Y007788D02*
X001140Y007788D01*
X001199Y007947D02*
X000410Y007947D01*
X000410Y008105D02*
X001329Y008105D01*
X001319Y008264D02*
X000410Y008264D01*
X000410Y008422D02*
X001192Y008422D01*
X001130Y008581D02*
X000410Y008581D01*
X000410Y008739D02*
X001130Y008739D01*
X001175Y008898D02*
X000410Y008898D01*
X000410Y009056D02*
X001278Y009056D01*
X000410Y010166D02*
X003190Y010166D01*
X003349Y010324D02*
X000410Y010324D01*
X000410Y010483D02*
X003507Y010483D01*
X003666Y010641D02*
X000410Y010641D01*
X000410Y010800D02*
X003824Y010800D01*
X004533Y010958D02*
X000410Y010958D01*
X000410Y011117D02*
X004691Y011117D01*
X004850Y011275D02*
X000410Y011275D01*
X000410Y011434D02*
X005008Y011434D01*
X005167Y011592D02*
X000410Y011592D01*
X000410Y011751D02*
X005325Y011751D01*
X005484Y011909D02*
X000410Y011909D01*
X000410Y012068D02*
X005642Y012068D01*
X005356Y012226D02*
X000410Y012226D01*
X000410Y012385D02*
X005207Y012385D01*
X005141Y012543D02*
X000410Y012543D01*
X000410Y012702D02*
X005130Y012702D01*
X005159Y012860D02*
X000410Y012860D01*
X000410Y013019D02*
X005241Y013019D01*
X005443Y013177D02*
X000410Y013177D01*
X000410Y013336D02*
X014450Y013336D01*
X014450Y013177D02*
X010916Y013177D01*
X010891Y013190D02*
X010809Y013216D01*
X010723Y013230D01*
X010700Y013230D01*
X010700Y012700D01*
X011230Y012700D01*
X011230Y012723D01*
X011216Y012809D01*
X011190Y012891D01*
X011150Y012968D01*
X011100Y013038D01*
X011038Y013100D01*
X010968Y013150D01*
X010891Y013190D01*
X010700Y013177D02*
X010660Y013177D01*
X010444Y013177D02*
X009917Y013177D01*
X010119Y013019D02*
X010246Y013019D01*
X010660Y013019D02*
X010700Y013019D01*
X010700Y012860D02*
X010660Y012860D01*
X010660Y012702D02*
X010700Y012702D01*
X010700Y012660D02*
X011230Y012660D01*
X011230Y012637D01*
X011216Y012551D01*
X011190Y012469D01*
X011150Y012392D01*
X011100Y012322D01*
X011038Y012260D01*
X010968Y012210D01*
X010891Y012170D01*
X010809Y012144D01*
X010723Y012130D01*
X010700Y012130D01*
X010700Y012660D01*
X010700Y012543D02*
X010660Y012543D01*
X010660Y012385D02*
X010700Y012385D01*
X010700Y012226D02*
X010660Y012226D01*
X010369Y012226D02*
X010004Y012226D01*
X010153Y012385D02*
X010215Y012385D01*
X010991Y012226D02*
X014450Y012226D01*
X014450Y012068D02*
X007910Y012068D01*
X008004Y012226D02*
X008356Y012226D01*
X008207Y012385D02*
X008153Y012385D01*
X008026Y011909D02*
X014450Y011909D01*
X014450Y011751D02*
X008185Y011751D01*
X008343Y011592D02*
X014450Y011592D01*
X014450Y011434D02*
X008502Y011434D01*
X008660Y011275D02*
X014450Y011275D01*
X014450Y011117D02*
X008819Y011117D01*
X008977Y010958D02*
X014450Y010958D01*
X013234Y009849D02*
X010674Y009849D01*
X010515Y009690D02*
X013426Y009690D01*
X013254Y009532D02*
X010357Y009532D01*
X009356Y012226D02*
X009004Y012226D01*
X009153Y012385D02*
X009207Y012385D01*
X009241Y013019D02*
X009119Y013019D01*
X008917Y013177D02*
X009443Y013177D01*
X008443Y013177D02*
X007917Y013177D01*
X008119Y013019D02*
X008241Y013019D01*
X007443Y013177D02*
X006917Y013177D01*
X007119Y013019D02*
X007241Y013019D01*
X006443Y013177D02*
X005917Y013177D01*
X006119Y013019D02*
X006241Y013019D01*
X011114Y013019D02*
X014450Y013019D01*
X014450Y012860D02*
X011200Y012860D01*
X011230Y012702D02*
X014450Y012702D01*
X014450Y012543D02*
X011214Y012543D01*
X011145Y012385D02*
X014450Y012385D01*
D13*
X012930Y011880D03*
X010980Y009430D03*
X009380Y007080D03*
X008230Y007130D03*
X009530Y005880D03*
X011080Y005730D03*
X011380Y003830D03*
X010180Y002180D03*
X007580Y003080D03*
X006380Y004080D03*
X006030Y005830D03*
X005230Y007980D03*
X005830Y008830D03*
X006380Y010530D03*
X004380Y011730D03*
X002680Y009680D03*
X002680Y008430D03*
X003180Y006780D03*
X001080Y010530D03*
X004680Y001130D03*
D14*
X004530Y001780D02*
X009780Y001780D01*
X010180Y002180D01*
X011480Y000480D02*
X012180Y001180D01*
X011480Y000480D02*
X002480Y000480D01*
X002180Y000780D01*
X002180Y001180D01*
X002180Y002180D02*
X002180Y002380D01*
X002630Y002830D01*
X003480Y002830D01*
X004530Y001780D01*
X007580Y003080D02*
X009530Y005030D01*
X009530Y005880D01*
X009380Y007080D02*
X009380Y008880D01*
X010680Y010180D01*
X012930Y010180D01*
X013130Y010180D01*
X013680Y010180D01*
X013680Y009180D02*
X012880Y009180D01*
X011080Y007380D01*
X011080Y005730D01*
X008930Y007430D02*
X008930Y010680D01*
X007630Y011980D01*
X007530Y011880D01*
X006380Y011880D01*
X004180Y009680D01*
X003330Y009530D02*
X004180Y008680D01*
X003330Y009530D02*
X003330Y009980D01*
X004030Y010680D01*
X004580Y010680D01*
X006580Y012680D01*
X006680Y012680D01*
X007680Y012680D02*
X007680Y012030D01*
X007630Y011980D01*
X006380Y010530D02*
X005930Y010530D01*
X005230Y009830D01*
X005230Y007980D01*
X005830Y008830D02*
X005830Y006030D01*
X006030Y005830D01*
X008230Y007130D02*
X008630Y007130D01*
X008930Y007430D01*
X002680Y008430D02*
X002680Y009680D01*
M02*
